<?xml version="1.0" encoding="UTF-8"?>
<svg width="1525px" height="649px" viewBox="0 0 1525 649" version="1.1" xmlns="http://www.w3.org/2000/svg" xmlns:xlink="http://www.w3.org/1999/xlink">
    <title>web logo</title>
    <g id="web-logo" stroke="none" stroke-width="1" fill="none" fill-rule="evenodd">
        <path d="M638.37,478.42 C647.17,478.42 655.548333,477.155 663.505,474.625 C671.461667,472.095 678.886667,468.52 685.78,463.9 C687.026667,463.166667 687.943333,462.25 688.53,461.15 C689.116667,460.05 689.006667,458.693333 688.2,457.08 L688.2,457.08 L669.39,430.02 C668.51,428.846667 667.63,428.186667 666.75,428.04 C665.87,427.893333 664.77,428.223333 663.45,429.03 C659.856667,431.743333 655.86,433.851667 651.46,435.355 C647.06,436.858333 642.44,437.61 637.6,437.61 C631.586667,437.61 626.05,436.473333 620.99,434.2 C615.93,431.926667 611.566667,428.828333 607.9,424.905 C604.233333,420.981667 601.373333,416.398333 599.32,411.155 C597.266667,405.911667 596.24,400.283333 596.24,394.27 C596.24,388.256667 597.266667,382.61 599.32,377.33 C601.373333,372.05 604.233333,367.43 607.9,363.47 C611.566667,359.51 615.93,356.393333 620.99,354.12 C626.05,351.846667 631.586667,350.71 637.6,350.71 C642.44,350.71 647.023333,351.443333 651.35,352.91 C655.676667,354.376667 659.636667,356.466667 663.23,359.18 C664.55,359.986667 665.668333,360.298333 666.585,360.115 C667.501667,359.931667 668.363333,359.216667 669.17,357.97 L669.17,357.97 L687.76,331.57 C688.566667,329.956667 688.676667,328.563333 688.09,327.39 C687.503333,326.216667 686.586667,325.263333 685.34,324.53 C678.446667,319.91 671.095,316.371667 663.285,313.915 C655.475,311.458333 647.17,310.23 638.37,310.23 C630.596667,310.23 623.135,311.238333 615.985,313.255 C608.835,315.271667 602.143333,318.095 595.91,321.725 C589.676667,325.355 584.011667,329.736667 578.915,334.87 C573.818333,340.003333 569.436667,345.705 565.77,351.975 C562.103333,358.245 559.28,364.955 557.3,372.105 C555.32,379.255 554.33,386.716667 554.33,394.49 C554.33,402.263333 555.32,409.725 557.3,416.875 C559.28,424.025 562.103333,430.698333 565.77,436.895 C569.436667,443.091667 573.818333,448.738333 578.915,453.835 C584.011667,458.931667 589.676667,463.313333 595.91,466.98 C602.143333,470.646667 608.835,473.47 615.985,475.45 C623.135,477.43 630.596667,478.42 638.37,478.42 Z M831.86,476 C834.573333,476 836.076667,474.973333 836.37,472.92 C836.956667,472.333333 837.25,471.673333 837.25,470.94 L837.25,470.94 L837.25,443.22 C837.25,439.846667 835.6,438.16 832.3,438.16 L832.3,438.16 L758.38,438.16 L758.38,410.11 L813.49,410.11 C815.03,410.11 816.203333,409.633333 817.01,408.68 C817.816667,407.726667 818.22,406.736667 818.22,405.71 L818.22,405.71 L818.22,381.95 C818.22,380.41 817.761667,379.31 816.845,378.65 C815.928333,377.99 814.773333,377.66 813.38,377.66 L813.38,377.66 L758.38,377.66 L758.38,350.49 L829.66,350.49 C831.346667,350.49 832.63,349.921667 833.51,348.785 C834.39,347.648333 834.83,346.456667 834.83,345.21 L834.83,345.21 L834.83,317.93 C834.83,316.316667 834.39,315.033333 833.51,314.08 C832.63,313.126667 831.383333,312.65 829.77,312.65 L829.77,312.65 L720.54,312.65 C719,312.65 717.808333,313.108333 716.965,314.025 C716.121667,314.941667 715.7,316.17 715.7,317.71 L715.7,317.71 L715.7,471.27 C715.7,472.883333 716.14,474.075 717.02,474.845 C717.9,475.615 719.073333,476 720.54,476 L720.54,476 L831.86,476 Z M901.82,476 C905.413333,476 907.21,474.386667 907.21,471.16 L907.21,471.16 L907.21,317.49 C907.21,316.023333 906.586667,314.85 905.34,313.97 C904.093333,313.09 902.92,312.65 901.82,312.65 L901.82,312.65 L869.48,312.65 C867.866667,312.65 866.656667,313.126667 865.85,314.08 C865.043333,315.033333 864.64,316.17 864.64,317.49 L864.64,317.49 L864.64,471.16 C864.64,474.386667 866.253333,476 869.48,476 L869.48,476 L901.82,476 Z M1041.85,476 C1043.39,475.926667 1044.58167,475.376667 1045.425,474.35 C1046.26833,473.323333 1046.69,472.186667 1046.69,470.94 L1046.69,470.94 L1046.69,442.01 C1046.69,440.47 1046.21333,439.26 1045.26,438.38 C1044.30667,437.5 1043.17,437.06 1041.85,437.06 L1041.85,437.06 L981.35,437.06 L981.35,317.38 C981.276667,315.913333 980.726667,314.74 979.7,313.86 C978.673333,312.98 977.536667,312.54 976.29,312.54 L976.29,312.54 L943.73,312.54 C942.19,312.54 940.98,313.016667 940.1,313.97 C939.22,314.923333 938.78,316.06 938.78,317.38 L938.78,317.38 L938.78,471.16 C938.78,474.386667 940.393333,476 943.62,476 L943.62,476 L1041.85,476 Z M1109.94,476 C1113.53333,476 1115.33,474.386667 1115.33,471.16 L1115.33,471.16 L1115.33,317.49 C1115.33,316.023333 1114.70667,314.85 1113.46,313.97 C1112.21333,313.09 1111.04,312.65 1109.94,312.65 L1109.94,312.65 L1077.6,312.65 C1075.98667,312.65 1074.77667,313.126667 1073.97,314.08 C1073.16333,315.033333 1072.76,316.17 1072.76,317.49 L1072.76,317.49 L1072.76,471.16 C1072.76,474.386667 1074.37333,476 1077.6,476 L1077.6,476 L1109.94,476 Z M1208.28,476 C1215.98,476 1223.42333,475.065 1230.61,473.195 C1237.79667,471.325 1244.48833,468.666667 1250.685,465.22 C1256.88167,461.773333 1262.52833,457.593333 1267.625,452.68 C1272.72167,447.766667 1277.10333,442.285 1280.77,436.235 C1284.43667,430.185 1287.26,423.658333 1289.24,416.655 C1291.22,409.651667 1292.21,402.263333 1292.21,394.49 C1292.21,386.79 1291.20167,379.42 1289.185,372.38 C1287.16833,365.34 1284.345,358.776667 1280.715,352.69 C1277.085,346.603333 1272.70333,341.103333 1267.57,336.19 C1262.43667,331.276667 1256.77167,327.06 1250.575,323.54 C1244.37833,320.02 1237.705,317.306667 1230.555,315.4 C1223.405,313.493333 1215.98,312.54 1208.28,312.54 L1208.28,312.54 L1154.05,312.54 C1152.36333,312.54 1151.09833,313.016667 1150.255,313.97 C1149.41167,314.923333 1148.99,316.17 1148.99,317.71 L1148.99,317.71 L1148.99,471.38 C1148.99,473.286667 1149.50333,474.533333 1150.53,475.12 C1151.55667,475.706667 1152.73,476 1154.05,476 L1154.05,476 L1208.28,476 Z M1200.8,436.62 L1191.56,436.62 L1191.56,352.03 L1206.08,352.03 C1212.09333,352.03 1217.75833,353.075 1223.075,355.165 C1228.39167,357.255 1233.03,360.188333 1236.99,363.965 C1240.95,367.741667 1244.085,372.215 1246.395,377.385 C1248.705,382.555 1249.86,388.22 1249.86,394.38 C1249.86,400.173333 1248.85167,405.526667 1246.835,410.44 C1244.81833,415.353333 1242.03167,419.625 1238.475,423.255 C1234.91833,426.885 1230.75667,429.818333 1225.99,432.055 C1221.22333,434.291667 1216.09,435.63 1210.59,436.07 C1208.97667,436.216667 1207.36333,436.345 1205.75,436.455 C1204.13667,436.565 1202.48667,436.62 1200.8,436.62 L1200.8,436.62 Z M1358.43,476 C1360.11667,476 1361.455,475.578333 1362.445,474.735 C1363.435,473.891667 1363.93,472.7 1363.93,471.16 L1363.93,471.16 L1363.93,408.68 L1418.6,408.68 L1418.6,471.16 C1418.6,472.773333 1419.05833,473.983333 1419.975,474.79 C1420.89167,475.596667 1422.08333,476 1423.55,476 L1423.55,476 L1456.11,476 C1457.65,476 1458.89667,475.596667 1459.85,474.79 C1460.80333,473.983333 1461.28,472.773333 1461.28,471.16 L1461.28,471.16 L1461.28,317.27 C1461.28,315.656667 1460.73,314.483333 1459.63,313.75 C1458.53,313.016667 1457.24667,312.65 1455.78,312.65 L1455.78,312.65 L1423.55,312.65 C1422.08333,312.65 1420.89167,313.126667 1419.975,314.08 C1419.05833,315.033333 1418.6,316.17 1418.6,317.49 L1418.6,317.49 L1418.6,369.63 L1363.93,369.63 L1363.93,317.49 C1363.93,316.096667 1363.34333,314.941667 1362.17,314.025 C1360.99667,313.108333 1359.86,312.65 1358.76,312.65 L1358.76,312.65 L1326.09,312.65 C1324.69667,312.65 1323.57833,313.145 1322.735,314.135 C1321.89167,315.125 1321.43333,316.243333 1321.36,317.49 L1321.36,317.49 L1321.36,471.71 C1321.43333,474.57 1323.01,476 1326.09,476 L1326.09,476 L1358.43,476 Z" id="CEILIDH" fill="#141B15" fill-rule="nonzero"></path>
        <path d="M621.46,261 C622.3,260.96 622.95,260.66 623.41,260.1 C623.87,259.54 624.1,258.92 624.1,258.24 L624.1,258.24 L624.1,242.46 C624.1,241.62 623.84,240.96 623.32,240.48 C622.8,240 622.18,239.76 621.46,239.76 L621.46,239.76 L588.46,239.76 L588.46,174.48 C588.42,173.68 588.12,173.04 587.56,172.56 C587,172.08 586.38,171.84 585.7,171.84 L585.7,171.84 L567.94,171.84 C567.1,171.84 566.44,172.1 565.96,172.62 C565.48,173.14 565.24,173.76 565.24,174.48 L565.24,174.48 L565.24,258.36 C565.24,260.12 566.12,261 567.88,261 L567.88,261 L621.46,261 Z M658.6,261 C660.56,261 661.54,260.12 661.54,258.36 L661.54,258.36 L661.54,174.54 C661.54,173.74 661.2,173.1 660.52,172.62 C659.84,172.14 659.2,171.9 658.6,171.9 L658.6,171.9 L640.96,171.9 C640.08,171.9 639.42,172.16 638.98,172.68 C638.54,173.2 638.32,173.82 638.32,174.54 L638.32,174.54 L638.32,258.36 C638.32,260.12 639.2,261 640.96,261 L640.96,261 L658.6,261 Z M719.92,261 C720.76,261 721.44,260.71 721.96,260.13 C722.48,259.55 722.74,258.9 722.74,258.18 L722.74,258.18 L722.74,192.54 L743.44,192.54 C744.36,192.54 745.07,192.21 745.57,191.55 C746.07,190.89 746.32,190.2 746.32,189.48 L746.32,189.48 L746.32,174.54 C746.24,173.66 745.92,173 745.36,172.56 C744.8,172.12 744.16,171.9 743.44,171.9 L743.44,171.9 L678.82,171.9 C678.02,171.9 677.35,172.14 676.81,172.62 C676.27,173.1 676,173.74 676,174.54 L676,174.54 L676,189.48 C676,190.48 676.27,191.24 676.81,191.76 C677.35,192.28 678.02,192.54 678.82,192.54 L678.82,192.54 L699.46,192.54 L699.46,258.18 C699.46,258.98 699.76,259.65 700.36,260.19 C700.96,260.73 701.6,261 702.28,261 L702.28,261 L719.92,261 Z M799.84,261 C800.68,261 801.36,260.71 801.88,260.13 C802.4,259.55 802.66,258.9 802.66,258.18 L802.66,258.18 L802.66,192.54 L823.36,192.54 C824.28,192.54 824.99,192.21 825.49,191.55 C825.99,190.89 826.24,190.2 826.24,189.48 L826.24,189.48 L826.24,174.54 C826.16,173.66 825.84,173 825.28,172.56 C824.72,172.12 824.08,171.9 823.36,171.9 L823.36,171.9 L758.74,171.9 C757.94,171.9 757.27,172.14 756.73,172.62 C756.19,173.1 755.92,173.74 755.92,174.54 L755.92,174.54 L755.92,189.48 C755.92,190.48 756.19,191.24 756.73,191.76 C757.27,192.28 757.94,192.54 758.74,192.54 L758.74,192.54 L779.38,192.54 L779.38,258.18 C779.38,258.98 779.68,259.65 780.28,260.19 C780.88,260.73 781.52,261 782.2,261 L782.2,261 L799.84,261 Z M894.82,261 C895.66,260.96 896.31,260.66 896.77,260.1 C897.23,259.54 897.46,258.92 897.46,258.24 L897.46,258.24 L897.46,242.46 C897.46,241.62 897.2,240.96 896.68,240.48 C896.16,240 895.54,239.76 894.82,239.76 L894.82,239.76 L861.82,239.76 L861.82,174.48 C861.78,173.68 861.48,173.04 860.92,172.56 C860.36,172.08 859.74,171.84 859.06,171.84 L859.06,171.84 L841.3,171.84 C840.46,171.84 839.8,172.1 839.32,172.62 C838.84,173.14 838.6,173.76 838.6,174.48 L838.6,174.48 L838.6,258.36 C838.6,260.12 839.48,261 841.24,261 L841.24,261 L894.82,261 Z M974.8,261 C976.28,261 977.1,260.44 977.26,259.32 C977.58,259 977.74,258.64 977.74,258.24 L977.74,258.24 L977.74,243.12 C977.74,241.28 976.84,240.36 975.04,240.36 L975.04,240.36 L934.72,240.36 L934.72,225.06 L964.78,225.06 C965.62,225.06 966.26,224.8 966.7,224.28 C967.14,223.76 967.36,223.22 967.36,222.66 L967.36,222.66 L967.36,209.7 C967.36,208.86 967.11,208.26 966.61,207.9 C966.11,207.54 965.48,207.36 964.72,207.36 L964.72,207.36 L934.72,207.36 L934.72,192.54 L973.6,192.54 C974.52,192.54 975.22,192.23 975.7,191.61 C976.18,190.99 976.42,190.34 976.42,189.66 L976.42,189.66 L976.42,174.78 C976.42,173.9 976.18,173.2 975.7,172.68 C975.22,172.16 974.54,171.9 973.66,171.9 L973.66,171.9 L914.08,171.9 C913.24,171.9 912.59,172.15 912.13,172.65 C911.67,173.15 911.44,173.82 911.44,174.66 L911.44,174.66 L911.44,258.42 C911.44,259.3 911.68,259.95 912.16,260.37 C912.64,260.79 913.28,261 914.08,261 L914.08,261 L974.8,261 Z M1051,261 C1052.84,261 1053.76,260.14 1053.76,258.42 L1053.76,258.42 L1053.76,230.94 L1080.82,230.94 C1081.62,230.94 1082.25,230.63 1082.71,230.01 C1083.17,229.39 1083.4,228.74 1083.4,228.06 L1083.4,228.06 L1083.4,213.72 C1083.4,212.8 1083.14,212.13 1082.62,211.71 C1082.1,211.29 1081.46,211.08 1080.7,211.08 L1080.7,211.08 L1053.76,211.08 L1053.76,192.54 L1090.24,192.54 C1091.16,192.54 1091.86,192.23 1092.34,191.61 C1092.82,190.99 1093.06,190.34 1093.06,189.66 L1093.06,189.66 L1093.06,174.78 C1093.06,173.9 1092.83,173.2 1092.37,172.68 C1091.91,172.16 1091.22,171.9 1090.3,171.9 L1090.3,171.9 L1032.88,171.9 C1032.24,171.94 1031.69,172.2 1031.23,172.68 C1030.77,173.16 1030.54,173.82 1030.54,174.66 L1030.54,174.66 L1030.54,258.48 C1030.54,259.96 1031.26,260.8 1032.7,261 L1032.7,261 L1051,261 Z M1149.58,262.32 C1153.78,262.32 1157.84,261.78 1161.76,260.7 C1165.68,259.62 1169.34,258.08 1172.74,256.08 C1176.14,254.08 1179.24,251.69 1182.04,248.91 C1184.84,246.13 1187.23,243.05 1189.21,239.67 C1191.19,236.29 1192.73,232.65 1193.83,228.75 C1194.93,224.85 1195.48,220.78 1195.48,216.54 C1195.48,212.3 1194.93,208.23 1193.83,204.33 C1192.73,200.43 1191.19,196.77 1189.21,193.35 C1187.23,189.93 1184.84,186.82 1182.04,184.02 C1179.24,181.22 1176.14,178.83 1172.74,176.85 C1169.34,174.87 1165.68,173.33 1161.76,172.23 C1157.84,171.13 1153.78,170.58 1149.58,170.58 C1145.34,170.58 1141.27,171.13 1137.37,172.23 C1133.47,173.33 1129.82,174.87 1126.42,176.85 C1123.02,178.83 1119.93,181.22 1117.15,184.02 C1114.37,186.82 1111.98,189.93 1109.98,193.35 C1107.98,196.77 1106.44,200.43 1105.36,204.33 C1104.28,208.23 1103.74,212.3 1103.74,216.54 C1103.74,220.78 1104.28,224.85 1105.36,228.75 C1106.44,232.65 1107.98,236.29 1109.98,239.67 C1111.98,243.05 1114.37,246.13 1117.15,248.91 C1119.93,251.69 1123.02,254.08 1126.42,256.08 C1129.82,258.08 1133.47,259.62 1137.37,260.7 C1141.27,261.78 1145.34,262.32 1149.58,262.32 Z M1149.58,240.18 C1146.26,240.18 1143.22,239.57 1140.46,238.35 C1137.7,237.13 1135.31,235.45 1133.29,233.31 C1131.27,231.17 1129.7,228.66 1128.58,225.78 C1127.46,222.9 1126.9,219.8 1126.9,216.48 C1126.9,213.2 1127.46,210.11 1128.58,207.21 C1129.7,204.31 1131.27,201.78 1133.29,199.62 C1135.31,197.46 1137.7,195.76 1140.46,194.52 C1143.22,193.28 1146.26,192.66 1149.58,192.66 C1152.9,192.66 1155.95,193.28 1158.73,194.52 C1161.51,195.76 1163.91,197.46 1165.93,199.62 C1167.95,201.78 1169.52,204.31 1170.64,207.21 C1171.76,210.11 1172.32,213.2 1172.32,216.48 C1172.32,219.8 1171.76,222.9 1170.64,225.78 C1169.52,228.66 1167.95,231.17 1165.93,233.31 C1163.91,235.45 1161.51,237.13 1158.73,238.35 C1155.95,239.57 1152.9,240.18 1149.58,240.18 Z M1264.3,261 C1265.14,260.96 1265.79,260.66 1266.25,260.1 C1266.71,259.54 1266.94,258.92 1266.94,258.24 L1266.94,258.24 L1266.94,242.46 C1266.94,241.62 1266.68,240.96 1266.16,240.48 C1265.64,240 1265.02,239.76 1264.3,239.76 L1264.3,239.76 L1231.3,239.76 L1231.3,174.48 C1231.26,173.68 1230.96,173.04 1230.4,172.56 C1229.84,172.08 1229.22,171.84 1228.54,171.84 L1228.54,171.84 L1210.78,171.84 C1209.94,171.84 1209.28,172.1 1208.8,172.62 C1208.32,173.14 1208.08,173.76 1208.08,174.48 L1208.08,174.48 L1208.08,258.36 C1208.08,260.12 1208.96,261 1210.72,261 L1210.72,261 L1264.3,261 Z M1301.2,261 C1303.12,261 1304.08,260.12 1304.08,258.36 L1304.08,258.36 L1304.08,234.96 L1311.7,226.2 C1313.7,229.16 1315.54,231.98 1317.22,234.66 C1318.9,237.34 1320.56,239.99 1322.2,242.61 C1323.84,245.23 1325.53,247.86 1327.27,250.5 C1329.01,253.14 1330.94,255.9 1333.06,258.78 C1333.5,259.46 1334.05,260 1334.71,260.4 C1335.37,260.8 1336.04,261 1336.72,261 L1336.72,261 L1359.4,261 C1360.28,261 1360.72,260.7 1360.72,260.1 C1360.72,259.7 1360.5,259.16 1360.06,258.48 L1360.06,258.48 L1328.8,211.44 L1357.06,174.18 C1357.5,173.62 1357.72,173.14 1357.72,172.74 C1357.72,172.14 1357.24,171.84 1356.28,171.84 L1356.28,171.84 L1333.48,171.84 C1332.8,171.84 1332.11,172.05 1331.41,172.47 C1330.71,172.89 1330.14,173.44 1329.7,174.12 C1325.38,179.72 1321.12,185.24 1316.92,190.68 C1312.72,196.12 1308.44,201.64 1304.08,207.24 L1304.08,207.24 L1304.08,174.54 C1304.08,173.74 1303.75,173.1 1303.09,172.62 C1302.43,172.14 1301.8,171.9 1301.2,171.9 L1301.2,171.9 L1283.44,171.9 C1282.6,171.9 1281.95,172.16 1281.49,172.68 C1281.03,173.2 1280.8,173.82 1280.8,174.54 L1280.8,174.54 L1280.8,258.36 C1280.8,260.12 1281.7,261 1283.5,261 L1283.5,261 L1301.2,261 Z" id="LITTLEFOLK" fill="#141B15" fill-rule="nonzero"></path>
        <path d="M153.538152,600.81706 C138.286291,596.483474 140.395839,582.809497 158.150141,570.938182 C162.366059,568.118282 162.366059,568.118282 159.738656,566.120852 C143.915988,554.088642 131.81574,536.86756 126.926291,519.417838 C125.548519,514.489363 125.548519,514.489363 115.914706,511.264049 C90.8955952,502.891147 80.1561751,496.242575 80.780991,489.514614 C83.1838846,463.671877 95.6314877,420.971132 107.553822,397.663554 C110.048849,392.788005 111.442506,389.058835 111.442506,387.247705 C111.442506,383.393629 113.568998,371.43975 115.372492,365.168011 C116.327719,361.851664 117.04361,355.901717 117.386729,348.496302 C117.676898,342.165287 118.350428,334.437024 118.879933,331.323913 C119.847869,325.662942 119.847869,325.662942 111.863992,320.87525 C54.1320643,286.274309 30.1052463,238.753058 41.2460311,181.179031 C42.511548,174.625727 42.511548,174.625727 39.7358829,171.768778 C34.3624664,166.240122 31.8843831,159.748211 29.6170427,145.260231 C25.6669356,120.066368 28.9308043,107.947359 39.6617522,107.947359 C42.7604154,107.947359 43.1564851,107.732479 43.6288035,105.76363 C46.0655855,95.6579278 53.8005942,90.9199869 61.432879,94.8640369 C63.7245766,96.0506392 63.8114154,96.017825 66.6082607,92.9248261 C75.9656727,82.5671961 85.1123418,88.5584261 88.0574485,106.979871 C90.0346201,119.34234 89.4881709,118.519869 93.8862393,115.786767 C115.509105,102.34884 120.849692,134.736414 101.88706,164.342193 C99.5826539,167.939048 99.5826539,167.939048 102.321254,176.387106 C103.827166,181.030838 106.147457,191.020103 107.479691,198.587471 C110.631305,216.548459 112.083207,219.352482 122.438207,227.473456 C129.801503,233.249806 134.894282,215.76727 134.604113,185.698917 C134.124382,135.208514 158.986759,98.3412791 196.510659,93.8965486 C198.649859,93.6446205 200.395107,93.3969265 200.386635,93.3514101 C200.382399,93.3016596 199.31174,91.1549786 198.003863,88.5838306 C190.54102,73.8756785 199.476946,62.1747851 223.43281,55.2816951 C237.555767,51.2169736 262.611942,50.3733322 272.841979,53.6187583 C274.095847,54.0167622 274.265288,53.528784 274.269524,49.4513603 C274.298117,31.8904935 298.692412,23.6954224 315.451245,35.6207222 C322.632391,40.7354967 325.163425,54.3385527 320.799245,64.3818018 C320.365051,65.3831629 321.701521,66.5242488 326.797477,69.5092786 C385.659369,104.00225 402.384313,162.444265 359.448872,183.606221 C356.288787,185.165422 356.073808,185.484037 356.073808,188.5601 C356.073808,193.050347 353.302379,203.524414 351.047746,207.555263 C349.198715,210.867376 349.198715,210.867376 352.176651,213.811123 C371.446396,232.844393 349.789643,275.197943 321.536316,273.742477 C317.266388,273.523363 316.356698,273.692726 316.356698,274.709965 C316.356698,275.387418 315.301924,277.608196 314.010991,279.642674 C311.665284,283.33903 311.665284,283.33903 314.607214,283.835476 C321.816953,285.04219 330.397052,287.866325 342.451763,292.998036 C355.436284,298.526692 355.436284,298.526692 360.719684,296.401181 C370.084509,292.633904 398.90123,285.778921 405.380252,285.778921 C407.146681,285.778921 407.989653,284.914109 410.571519,280.452442 C422.452552,259.927716 451.05747,249.011187 463.984805,260.072734 C465.709932,261.548312 467.960328,262.764553 468.982273,262.776197 C476.358277,262.842884 483.059692,272.07954 479.94938,277.889763 C479.311856,279.080599 479.502478,279.927416 480.80506,281.68562 C483.738518,285.65084 483.730046,289.789658 480.789175,294.999699 C478.666919,298.761684 478.311092,300.068957 478.719869,302.632696 C479.845597,309.661277 475.857365,315.586878 467.017809,320.035843 C464.316275,321.396043 459.898085,324.571606 457.196551,327.089828 C451.529789,332.373966 445.911741,334.842437 437.932101,335.54953 C432.917689,335.996226 432.537504,336.186759 427.954109,340.520345 C397.399553,369.402096 356.512238,380.16514 317.602094,369.57146 C308.476605,367.086052 309.199909,366.775905 310.176316,372.734321 C310.962101,377.518837 310.962101,377.518837 317.829781,380.181018 C341.326035,389.277949 359.114225,400.863463 376.041441,418.094072 C397.573231,440.008636 398.848279,445.479074 385.713378,459.661141 C380.617423,465.161217 380.650252,464.35039 385.151044,473.352054 C390.747912,484.557559 391.099503,484.809487 395.58441,480.781814 C428.255927,451.424787 452.096359,474.319542 427.309172,511.243937 C399.832099,552.179069 370.904183,563.111476 356.545067,537.99171 C355.342032,535.891604 353.76093,533.960861 353.03339,533.700465 C352.300555,533.443244 351.167415,532.785902 350.514005,532.23653 C349.85636,531.690333 346.431522,530.131131 342.894429,528.775166 C334.036869,525.380488 323.980511,518.504334 313.253799,508.518245 C308.269039,503.879805 303.980049,500.186625 303.722709,500.31153 C303.466429,500.439611 300.678056,501.873908 297.530678,503.502972 C276.205394,514.543348 240.811163,524.065805 218.923546,524.653284 C215.609903,524.740083 215.609903,524.740083 218.663029,531.880867 C220.342619,535.804805 222.109047,540.212487 222.593015,541.676422 C223.076983,543.136123 225.075334,546.212185 227.039798,548.511293 C245.027082,569.573748 240.029614,584.769879 212.313205,593.295208 C187.649922,600.882688 164.293458,603.873011 153.538152,600.81706 Z M188.804251,557.79073 C202.313865,554.466549 210.821848,549.785229 209.937018,546.16583 C209.28084,543.453713 202.43404,527.343223 201.374796,526.007711 C200.822841,525.311298 197.815269,524.990126 191.695902,524.972824 C176.972836,524.939301 159.242199,522.730029 145.437996,519.211199 C137.930764,517.298227 138.192384,517.128449 140.232173,522.612158 C150.838438,551.078567 167.380085,563.058162 188.804251,557.79073 Z M350.643787,513.0745 C353.929923,502.903312 359.673581,493.308896 367.318856,485.22345 C373.182087,479.017302 372.391232,475.721615 362.406958,464.775723 C355.621764,457.343668 355.174942,457.493714 338.048855,473.102731 C330.968925,479.553635 322.72579,486.662187 317.411123,490.901778 C314.272879,493.408926 329.73964,508.211314 342.076548,514.513237 C348.980266,518.041973 349.04215,518.03346 350.643787,513.0745 Z M220.987985,511.248931 C221.287267,510.950487 215.900189,485.509524 215.463108,485.155055 C207.649476,478.851109 193.763001,487.33143 194.003072,498.261789 C194.221613,508.193386 194.520895,510.875068 195.487641,511.539833 C196.610487,512.310183 220.193488,512.045139 220.987985,511.248931 Z M181.996006,497.811472 C181.996006,484.68456 181.996006,484.68456 179.40114,484.286309 C156.272983,480.745938 158.962576,479.365774 158.331421,495.098321 C157.732197,510.111163 156.650825,508.512675 168.425643,510.050822 C182.615453,511.907131 181.996006,512.467754 181.996006,497.811472 Z M246.332656,507.806638 C255.09321,505.979782 267.128454,502.501587 267.951071,501.556588 C268.785259,500.595536 258.692948,476.871032 257.501101,477.000528 C256.92569,477.063671 252.903072,478.053619 248.56382,479.195537 C244.224568,480.340666 237.941332,481.699838 234.604579,482.222102 C227.549218,483.321212 227.850073,481.770472 231.679134,497.351717 C235.052705,511.063299 234.720292,510.223181 236.622199,509.830412 C237.546854,509.633493 241.919768,508.727022 246.332656,507.806638 Z M144.171319,500.46728 C144.414985,498.439304 144.83059,493.456928 145.094299,489.392685 C145.358008,485.332587 145.737748,481.430002 145.943441,480.722231 C146.231411,479.718087 145.46982,479.255911 142.498351,478.628969 C140.401339,478.187519 135.972088,476.977158 132.650414,475.94089 C126.61043,474.059028 126.61043,474.059028 124.5092,485.02896 C123.350991,491.064185 122.246579,496.561587 122.049325,497.249668 C121.678023,498.549148 123.141079,499.123241 135.572306,502.531526 C143.656559,504.750176 143.656559,504.750176 144.171319,500.46728 Z M295.983876,488.504835 C299.395645,486.527679 304.432261,483.281214 307.174063,481.292557 C309.919995,479.298673 312.509016,477.43653 312.928132,477.146909 C313.355506,476.852061 311.835953,474.2758 309.45649,471.265631 C306.057109,466.956875 302.943677,462.717127 298.992013,457.00732 C298.88775,456.855714 294.769885,459.07753 289.842693,461.945503 C284.915501,464.812431 278.624634,468.182272 275.870444,469.4359 C270.357935,471.938972 270.034823,469.913721 279.507255,492.327404 C281.277658,496.513829 282.753854,496.170885 295.983876,488.504835 Z M111.635215,483.98646 C112.708568,478.064348 113.769525,472.496943 113.991634,471.612312 C114.354239,470.184937 102.825246,464 99.7911369,464 C93.6330428,464 95.4491692,488.360468 101.844868,491.548558 C105.904809,493.572097 109.326317,495.125543 109.45545,494.991994 C109.580451,494.861649 110.560828,489.908572 111.635215,483.98646 Z M214,473.386614 C214,473.051049 213.268951,467.313762 212.377854,460.63624 C211.491082,453.95436 210.764362,448.370692 210.764362,448.222521 C210.764362,445.137067 195.484854,448.490537 195.054446,451.669686 C192.536879,470.169331 194.120091,474 204.275789,474 C209.62778,474 214.004323,473.727626 214,473.386614 Z M181.739063,471.288827 C181.754824,467.399145 182.63011,450.87041 182.888597,449.536252 C183.039907,448.763901 183.035704,448.1269 182.884394,448.1269 C182.727831,448.1269 178.459633,447.572612 173.393906,446.892643 C162.500651,445.432803 163.761566,444.631449 162.439706,453.879248 C159.824358,472.191156 158.314412,470.617451 180.749245,472.996807 C181.291438,473.055888 181.73486,472.287834 181.739063,471.288827 Z M239.47522,467.486303 C245.929054,465.970471 251.501279,464.550308 251.865353,464.326016 C253.163951,463.517076 244.675964,441.421643 243.291639,442.011606 C242.600535,442.302866 237.453767,443.303146 231.851907,444.233267 C220.589978,446.106266 220.917009,445.453586 223.450705,461.075375 C225.224504,471.982776 223.405196,471.25675 239.47522,467.486303 Z M332.210974,461.091762 C335.64387,458.177684 340.483452,454.320402 342.964675,452.517377 C347.466902,449.248109 347.466902,449.248109 339.503666,441.515135 C331.536265,433.787576 331.536265,433.787576 326.797681,437.112073 C322.929556,439.823649 311.252294,448.51607 310.031987,449.590304 C309.540532,450.022381 314.807013,457.978431 319.305076,463.596505 C322.94205,468.139261 323.51472,468.562674 324.670473,467.539336 C325.381625,466.909089 328.773913,464.006923 332.210974,461.091762 Z M148.666489,456.105832 C150.793432,440.774534 151.261295,442.186555 143.234321,439.651906 C139.449375,438.457202 135.864942,437.288708 135.267716,437.058285 C134.042001,436.581059 133.342363,438.799014 130.399355,452.5523 C128.676671,460.5887 128.62277,461.472169 129.809675,461.936291 C145.836673,468.241791 147.037593,467.870494 148.666489,456.105832 Z M272.132042,457.222295 C282.176446,452.142606 291.377104,446.334967 290.98809,445.312219 C290.656316,444.451236 281.170522,429.680443 280.520752,429.015284 C280.384014,428.879059 278.491943,429.668736 276.322157,430.774497 C274.14813,431.880258 269.191647,434.100293 265.312107,435.70519 C261.428327,437.313279 258.152977,438.714903 258.033199,438.822392 C257.424769,439.371548 265.370406,460 266.194013,460 C266.438869,460 269.108968,458.752693 272.132042,457.222295 Z M119.034449,446.299085 C121.976813,432.109537 122.24308,433.299947 115.422287,430.105791 C108.496225,426.864502 109.395138,426.238605 106.138,436.550005 C101.566035,451.022358 101.445286,450.362481 109.439516,454.293243 C117.634994,458.322658 116.3212,459.418799 119.034449,446.299085 Z M365.276311,440.342925 C368.469686,438.880041 371.953369,437.322261 373.013985,436.880837 C374.888927,436.098216 374.721241,435.860444 366.820073,428.022499 C358.873839,420.133375 352.82246,420.012889 344.00845,427.555485 C343.598667,427.905212 358.226151,443 358.971307,443 C359.241701,443 362.078743,441.804743 365.276311,440.342925 Z M313.019798,432.105403 C323.801254,424.696629 323.885351,425.871151 311.883956,416.553911 C301.692244,408.644817 289.862236,420.670608 297.371358,431.309587 C303.609444,440.147844 301.480404,440.040099 313.019798,432.105403 Z M207.885654,433.771528 C207.694724,432.557641 207.322202,428.761701 207.058636,425.334319 C206.304254,415.603941 196.333341,415.533229 195.538491,425.255036 C194.581765,436.923562 194.051518,435.981809 201.630616,435.981809 C208.226008,435.981809 208.226008,435.981809 207.885654,433.771528 Z M183.380088,429.588211 C183.384184,426.619449 183.592062,422.903426 183.839877,421.340583 C184.291473,418.492451 184.291473,418.492451 176.751558,417.570117 C167.963353,416.498331 168.639211,415.977383 166.891196,425.168695 C165.367443,433.157984 165.067403,432.657319 172.063559,433.862544 C183.307382,435.805423 183.3678,435.78087 183.380088,429.588211 Z M232.096952,432.32931 C236.409447,431.645976 240.367415,430.839333 240.889875,430.538255 C241.623076,430.108731 238.523437,419.424054 236.671775,416.008411 C236.632261,415.935453 234.008982,416.345454 230.840193,416.915755 C227.671404,417.489139 223.649775,418.175556 221.904581,418.44889 C218.7325,418.938014 218.7325,418.938014 219.263741,423.317518 C220.584161,434.203599 220.606113,434.259087 222.496191,433.90252 C223.465377,433.721668 227.787751,433.011617 232.096952,432.32931 Z M154.861901,422.741541 C156.279819,415.689453 146.406829,406.66202 142.289412,411.245454 C141.977932,411.592988 138,424.561605 138,425.23449 C138,425.576743 140.031441,426.447162 142.522236,427.169695 C147.00462,428.464761 152.158207,429.863348 152.973091,429.999615 C153.202769,430.040812 154.055407,426.773569 154.861901,422.741541 Z M263.905923,422.060385 C268.045996,420.239692 271.56575,418.622416 271.728544,418.469349 C273.706543,416.597297 264.31344,406.872498 261.71193,408.108113 C260.094631,408.875462 256.346114,410.256088 253.386031,411.180533 C250.422757,412.10095 248,412.961953 248,413.091858 C248,413.803822 251.482513,423.89417 252.123049,425.042173 C253.049804,426.698723 253.814829,426.505375 263.905923,422.060385 Z M127.537563,414.990846 C131.03585,405.474671 131.079355,405.782767 125.894394,403.452087 C120.61796,401.076369 121.03182,400.840947 116.695774,408.790029 C112.826017,415.88238 112.756855,415.594755 118.900052,418.185423 C125.480534,420.964429 125.318783,421.02482 127.537563,414.990846 Z M341.369598,413.599064 C348.580109,410.230819 348.580109,410.230819 342.994563,406.699137 C328.902868,397.786645 328.086052,397.565588 322.50484,401.232418 C316.444804,405.209357 316.394972,404.412083 322.986912,408.901331 C326.000681,410.955803 329.74135,413.624208 331.293733,414.831119 C332.851533,416.04222 334.129838,417.01655 334.137421,416.999787 C334.150421,416.984072 337.404684,415.453432 341.369598,413.599064 Z M291.325868,408.413558 C297.319317,404.806839 297.319317,404.806839 292.63713,400.216761 C287.995595,395.668461 284.750794,395.890198 278.012072,401.221544 C277.677481,401.489343 284.404737,411.979571 284.925907,412 C285.148967,412.012778 288.027907,410.397414 291.325868,408.413558 Z M311.446217,396.155965 C315.238186,393.967602 315.129631,393.739495 308.927107,390.919933 C303.954871,388.657617 303.464246,388.572207 302.142432,389.743987 C297.955622,393.450977 306.240908,399.163012 311.446217,396.155965 Z M232.231266,379.681511 C252.766026,377.495856 269.709029,373.040971 287.702762,365.093906 C291.748916,363.30497 292.204373,362.841602 292.974413,359.738734 C295.833201,348.195812 295.253817,348.514245 305.874441,352.580874 C347.580541,368.544828 393.106125,360.564967 421.373064,332.331302 C427.484662,326.228184 427.484662,326.228184 433.666168,325.694995 C442.507332,324.938585 447.208073,323.141185 452.13972,318.64081 C454.457255,316.524978 458.379482,313.900288 460.858016,312.805345 C466.029043,310.520246 469.360235,307.541154 469.360235,305.19787 C469.360235,303.259768 469.128269,303.23861 464.122478,304.755661 C456.992986,306.916984 453.472197,306.08652 453.472197,302.243111 C453.472197,299.995039 455.668983,298.5732 461.813417,296.841391 C470.220307,294.473775 475.869034,289.923678 473.427573,287.486239 C472.23597,286.296083 465.798137,287.572988 463.104585,289.531191 C461.784818,290.490721 459.095503,292.444692 457.125386,293.870763 C455.156329,295.295776 451.540211,297.226472 449.086039,298.163786 C445.45827,299.55283 444.340812,300.437248 443.062354,302.945567 C441.150494,306.681069 435.647936,312.161074 433.18635,312.776781 C426.925403,314.346729 425.055911,309.999751 430.454666,306.433516 C433.798569,304.222472 436.735737,299.305278 436.768573,295.858587 C436.793993,293.684569 439.338198,291.961224 443.542173,291.267231 C450.546679,290.118334 453.472197,288.419321 453.472197,285.506878 C453.472197,282.977401 441.357038,282.010465 436.268629,284.134761 C432.498927,285.70894 431.452435,285.639117 430.434541,283.738042 C428.552338,280.228935 434.563313,275.993039 443.935137,274.216797 C456.012164,271.931699 460.307231,264.923005 449.198314,265.629692 C433.074074,266.653755 416.598179,283.968668 415.017848,301.549118 C414.368557,308.781032 407.508102,305.416859 407.413833,297.821021 C407.392649,296.056417 408.278143,295.965436 393.466254,299.225934 C376.766867,302.904308 368.347266,305.495145 362.380778,308.796901 C356.298837,312.165306 355.417581,312.165306 349.206417,308.755642 C339.488234,303.420571 316.491887,295.407915 307.335081,294.172269 C302.208541,293.478276 302.208541,293.478276 296.668912,297.693013 C283.168316,307.966437 261.103009,313.780744 243.704548,311.644811 C237.444661,310.875706 236.381221,310.962455 230.265386,312.739754 C213.028983,317.743697 193.342645,315.041779 180.842995,305.950049 C177.918537,303.821521 173.905219,301.532191 171.919214,300.858298 C145.749497,291.986614 128.003618,272.170788 126.836376,250.520535 C126.654193,247.15742 126.426465,246.880246 119.066066,241.04478 C101.224859,226.903616 102.226864,228.62273 97.2570862,203.600898 C92.0606385,177.417475 90.8817461,174.065997 86.5824429,173.218606 C81.6052502,172.234744 81.7334137,171.007561 87.4181537,165.375216 C98.0557249,154.837314 108.234661,125.050628 101.200497,125.050628 C98.213546,125.050628 92.1347827,130.394162 91.2079804,133.835563 C90.541742,136.311087 89.5662165,137.364771 85.8420604,139.646696 C80.5788829,142.87334 77.9022781,146.443807 76.4003289,152.258114 C73.9461566,161.759259 68.033688,158.94097 69.2295277,148.841045 C69.8756413,143.390661 72.2217749,139.315569 77.268875,134.864916 C81.6338487,131.017275 81.6465591,130.988711 80.9104133,127.827658 C80.500502,126.083154 79.4582467,120.177867 78.5886414,114.702093 C75.4608163,94.9825368 70.8723509,96.9037124 70.3183879,118.169942 C70.0652385,127.87738 69.6680376,128.976555 66.4247594,129.005118 C64.4800635,129.026277 63.4907683,126.703093 62.6391695,120.112276 C61.3649488,110.214413 57.7488314,102.63127 55.414349,104.961859 C53.6603096,106.710595 52.9326374,116.450828 53.9505311,124.455021 C55.8984045,139.724982 48.835642,141.121431 45.4927988,126.128645 C43.2133949,115.884843 38,115.950434 38,126.228089 C38,149.068497 46.8040915,168.07396 59.3037407,172.214643 C66.3050695,174.532538 65.5223188,177.933738 57.7774298,178.883746 C52.323596,179.549176 52.1297619,180.392335 52.0015984,203.600898 C51.8067051,239.433574 63.8763181,266.575469 90.3193095,289.771338 C99.1403483,297.511052 123.162003,313.338535 124.221205,312.111352 C124.32077,312.000271 125.533557,309.652755 126.914757,306.895826 C129.132727,302.474794 129.670802,301.920446 131.494749,302.135203 C135.210432,302.581644 135.368253,304.023583 133.076138,316.776762 C129.484383,336.786187 129.024689,342.075767 129.277838,360.357615 C129.356219,365.961397 129.356219,365.961397 132.334697,367.408626 C155.463443,378.644753 195.618871,383.578874 232.231266,379.681511 Z M226.074249,301.314438 C231.301037,299.930232 233.714617,299.736125 240.753963,300.129642 C272.95085,301.931762 302.124699,286.717164 306.631314,265.776939 C307.351487,262.429388 309.45612,261.899041 315.268114,263.598273 C330.409667,268.026671 347,252.240359 347,233.40137 C347,219.325957 339.697048,215.08318 327.028124,221.795253 C323.081409,223.888003 322.340147,224.044986 320.927217,223.109454 C316.050498,219.873276 321.45443,213.198327 331.641236,209.879415 C338.300988,207.708174 338.300988,207.708174 339.606367,201.841474 C341.963009,191.280142 341.950356,191.238775 334.54407,183.933774 C314.728249,164.397908 292.190955,151.922022 238.262355,130.659346 C232.825736,128.516744 228.055515,126.623405 227.664323,126.457936 C226.358944,125.89789 228.027045,133.066061 229.983005,136.422098 C232.182536,140.205594 236.062823,143.731342 239.238753,144.84507 C247.006707,147.567873 233.266486,156.148889 221.259741,156.073579 C202.053378,155.953721 190.553812,134.80666 197.943227,113.199259 C198.803638,110.675867 199.512212,108.491898 199.512212,108.339158 C199.512212,107.51818 193.461918,108.276577 189.017514,109.660783 C174.296677,114.230253 157.520765,130.927702 151.247987,147.248604 C146.292186,160.142402 146.23103,160.590015 146.177254,185.628763 C146.123478,208.698862 146.123478,208.698862 142.359179,219.479758 C130.686687,252.895868 142.676561,277.759601 175.672703,288.565954 C178.650401,289.539671 181.949699,291.341791 183.758039,292.986928 C193.639061,301.968886 210.823036,305.350379 226.074249,301.314438 Z M197.507073,276.874138 C187.684588,273.366705 177.417657,261.697909 179.20395,256.070517 C180.287421,252.666057 183.09977,253.383679 189.848342,258.790264 C199.098787,266.192604 212.339684,266.292391 223.329639,259.04398 C232.507782,252.988774 235.498759,261.15863 226.879896,268.730822 C217.884635,276.638469 206.034495,279.922972 197.507073,276.874138 Z M323.388521,245.96886 C321.637739,242.188763 326.107507,232.638826 330.725987,230.28665 C337.815602,226.675827 342.174628,231.325138 336.159741,236.087645 C334.346732,237.523874 332.048566,240.484604 330.775558,243.032015 C328.143056,248.305458 325.040163,249.539182 323.388521,245.96886 Z M190.068087,242.433798 C185.299588,233.602827 197.515866,224.135256 206.602584,229.624607 C211.283587,232.454409 211.074452,237.291298 206.302752,236.523572 C202.133916,235.85419 198.954205,237.32408 197.382489,240.641378 C195.720077,244.152194 191.551241,245.176887 190.068087,242.433798 Z M248.498986,232.846686 C239.700396,227.136815 244.91901,207.747183 254.591469,210.216022 C257.41951,210.938185 260.474309,214.753466 261.585631,218.950492 C264.004013,228.08846 255.339124,237.290597 248.498986,232.846686 Z M169.572333,223.960768 C165.895241,221.782607 164.865696,214.871014 167.383513,209.23019 C171.798515,199.331284 183,201.786204 183,212.654825 C183,221.352679 175.633361,227.554416 169.572333,223.960768 Z M271.64298,193.429368 C268.747871,188.779644 264.677443,186.824646 255.094501,185.480909 C248.051339,184.493567 250.677491,179.584834 258.53627,179.046096 C267.428234,178.434835 276.482011,183.983838 277.844286,190.875542 C278.886219,196.132383 274.461557,197.953732 271.64298,193.429368 Z M157.50668,181.703029 C153.756006,174.426265 171.804596,166.31514 179.527386,171.805356 C185.382825,175.968663 183.452659,180.769947 176.586892,179.127766 C171.700262,177.959025 167.7867,178.564095 163.316339,181.176512 C159.398519,183.465163 158.458455,183.552208 157.50668,181.703029 Z M470.179987,275.048384 C472.8124,271.959481 468.696095,270.897985 463.665514,273.370114 C458.408944,275.948895 458.179859,276.270865 460.114698,278.279155 C461.855537,280.08722 467.41033,278.303303 470.179987,275.048384 Z M359.124779,161.545876 C366.355567,154.554211 367.322174,156.253779 349.552023,144.708913 C343.094115,140.513073 338.779376,156.110834 345.075,160.893167 C348.352132,163.377877 351.264124,165.803729 351.549136,166.27986 C352.43663,167.766062 353.18111,167.298339 359.124779,161.545876 Z M331.257918,144.592952 C338.105742,135.034448 338.599872,136.373033 325.602065,129.261664 C317.330353,124.729974 317.330353,124.729974 314.376021,130.464419 C310.719669,137.567025 310.409402,136.844057 319.783242,143.117441 C329.234389,149.449977 327.903477,149.274713 331.257918,144.592952 Z M222,146.143251 C222,145.944792 221.12895,144.493293 220.069452,142.918284 C217.076266,138.468779 214.785573,131.587089 214.340626,125.690307 C213.951166,120.568362 212.528382,118 210.082743,118 C207.497861,118 207.24869,131.293622 209.730973,136.605582 C212.249897,141.986158 222,149.565623 222,146.143251 Z M366.683949,137.454531 C365.894032,134.714182 359.845643,121.991653 359.336052,122 C358.88482,122.003136 353.674285,131.594881 354.016096,131.790098 C354.109886,131.847515 356.991312,133.539746 360.419844,135.554555 C367.669782,139.820105 367.335266,139.717799 366.683949,137.454531 Z M302.636079,125.052761 C304.141659,122.228189 305.19068,119.740958 304.970895,119.522056 C304.502658,119.0557 289.298217,111.88799 285.088328,110.149467 C282.495503,109.07928 278,113.97443 278,117.866017 C278,118.043676 282.031513,120.397663 286.958092,123.099566 C291.885732,125.797239 296.622256,128.502314 297.485469,129.101914 C299.703491,130.645859 299.612179,130.720941 302.636079,125.052761 Z M346.97888,117.090489 C351.740706,108.021099 351.896127,108.427742 339.886846,98.9348541 C334.634508,94.777831 323,105.312608 323,114.226083 C323,114.428351 326.995745,116.60905 331.886537,119.074188 C336.774023,121.535112 341.126905,123.875939 341.557894,124.275207 C341.988883,124.674475 342.452941,125 342.583009,125 C342.716385,125 344.692763,121.440299 346.97888,117.090489 Z M268.532121,109.231004 C269.481496,107.04621 270.132226,105.128666 269.977141,104.978923 C269.518172,104.523454 247.926714,96.7732066 247.763246,97.0051005 C247.505468,97.3659399 245,103.861049 245,104.169894 C245,104.328996 248.798546,105.944974 253.447966,107.764769 C258.094242,109.584564 262.781385,111.538504 263.861744,112.10732 C266.665857,113.586034 266.636516,113.602672 268.532121,109.231004 Z M316.924039,98.2789104 C322.952527,85.5371974 323.453225,86.9058697 310.399086,80.4309559 C299.920419,75.2333989 297.162875,74.2098146 297.162875,75.5115929 C297.162875,75.9724182 295.017178,81.1402446 292.399363,86.9971853 C286.692676,99.7505782 286.759365,98.9170578 291.319634,100.667982 C293.346773,101.443102 298.43632,103.633615 302.633504,105.540625 C306.826452,107.444449 310.618208,109 311.056451,109 C311.49046,109 314.132621,104.1762 316.924039,98.2789104 Z M232.969766,96.3470523 C233.649389,94.722498 234.105352,93.2898287 233.978936,93.1680141 C233.189104,92.3767581 215.513504,86.5781666 215.259591,87.0244609 C212.651308,91.6307783 213.749078,93.1637021 221.831081,96.2047555 C231.67859,99.9098604 231.47546,99.9055483 232.969766,96.3470523 Z M279.724309,83.0503914 C284.45924,71.2396968 284.541094,70.9493407 283.376251,70.2110373 C281.913375,69.279523 260.331242,66.4331694 259.777155,67.1002329 C249.459372,79.4365908 256.542878,92.4616001 274.412204,94 C274.903327,94.0418283 277.29388,89.1176473 279.724309,83.0503914 Z M242.089114,75.9204045 C246.232129,66.0238255 246.416597,66.6689456 239.596656,67.3260933 C229.412327,68.3047076 218,71.5587369 218,73.4809759 C218,79.0891467 239.839038,81.2978628 242.089114,75.9204045 Z" id="Fill-1" fill="#141B15"></path>
    </g>
</svg>